<mxfile host="app.diagrams.net" modified="2022-09-24T06:06:53.441Z" agent="5.0 (Windows NT 10.0; Win64; x64) AppleWebKit/537.36 (KHTML, like Gecko) Chrome/105.0.0.0 Safari/537.36" etag="dmIaTtuyEgSyWcg5W_Tv" version="20.3.6" type="github">
  <diagram id="C5RBs43oDa-KdzZeNtuy" name="Page-1">
    <mxGraphModel dx="1467" dy="796" grid="1" gridSize="10" guides="1" tooltips="1" connect="1" arrows="1" fold="1" page="1" pageScale="1" pageWidth="827" pageHeight="1169" math="0" shadow="0">
      <root>
        <mxCell id="WIyWlLk6GJQsqaUBKTNV-0" />
        <mxCell id="WIyWlLk6GJQsqaUBKTNV-1" parent="WIyWlLk6GJQsqaUBKTNV-0" />
        <mxCell id="rKMKvAkk2KBtUYU5qK6V-19" value="" style="edgeStyle=orthogonalEdgeStyle;rounded=0;orthogonalLoop=1;jettySize=auto;html=1;endArrow=block;endFill=0;shadow=1;" parent="WIyWlLk6GJQsqaUBKTNV-1" source="rKMKvAkk2KBtUYU5qK6V-14" target="rKMKvAkk2KBtUYU5qK6V-18" edge="1">
          <mxGeometry relative="1" as="geometry" />
        </mxCell>
        <mxCell id="rKMKvAkk2KBtUYU5qK6V-14" value="Start" style="ellipse;whiteSpace=wrap;html=1;shadow=1;" parent="WIyWlLk6GJQsqaUBKTNV-1" vertex="1">
          <mxGeometry x="160" y="60" width="120" height="60" as="geometry" />
        </mxCell>
        <mxCell id="rKMKvAkk2KBtUYU5qK6V-43" style="edgeStyle=orthogonalEdgeStyle;rounded=0;orthogonalLoop=1;jettySize=auto;html=1;entryX=0.5;entryY=0;entryDx=0;entryDy=0;endArrow=block;endFill=0;shadow=1;" parent="WIyWlLk6GJQsqaUBKTNV-1" source="rKMKvAkk2KBtUYU5qK6V-18" target="rKMKvAkk2KBtUYU5qK6V-42" edge="1">
          <mxGeometry relative="1" as="geometry" />
        </mxCell>
        <mxCell id="rKMKvAkk2KBtUYU5qK6V-18" value="Trucker will send an email to the appropriate shipping line." style="whiteSpace=wrap;html=1;rounded=1;shadow=1;glass=0;sketch=0;" parent="WIyWlLk6GJQsqaUBKTNV-1" vertex="1">
          <mxGeometry x="130" y="150" width="180" height="60" as="geometry" />
        </mxCell>
        <mxCell id="rKMKvAkk2KBtUYU5qK6V-45" style="edgeStyle=orthogonalEdgeStyle;rounded=0;orthogonalLoop=1;jettySize=auto;html=1;entryX=0.5;entryY=0;entryDx=0;entryDy=0;endArrow=block;endFill=0;shadow=1;" parent="WIyWlLk6GJQsqaUBKTNV-1" source="rKMKvAkk2KBtUYU5qK6V-42" target="rKMKvAkk2KBtUYU5qK6V-44" edge="1">
          <mxGeometry relative="1" as="geometry" />
        </mxCell>
        <mxCell id="rKMKvAkk2KBtUYU5qK6V-42" value="Shipping line will encode the information in the system." style="whiteSpace=wrap;html=1;shadow=1;rounded=1;" parent="WIyWlLk6GJQsqaUBKTNV-1" vertex="1">
          <mxGeometry x="130" y="234" width="180" height="60" as="geometry" />
        </mxCell>
        <mxCell id="rKMKvAkk2KBtUYU5qK6V-47" style="edgeStyle=orthogonalEdgeStyle;rounded=0;orthogonalLoop=1;jettySize=auto;html=1;entryX=0.5;entryY=0;entryDx=0;entryDy=0;endArrow=block;endFill=0;shadow=1;" parent="WIyWlLk6GJQsqaUBKTNV-1" source="rKMKvAkk2KBtUYU5qK6V-44" target="rKMKvAkk2KBtUYU5qK6V-46" edge="1">
          <mxGeometry relative="1" as="geometry" />
        </mxCell>
        <mxCell id="rKMKvAkk2KBtUYU5qK6V-44" value="System will send email including OTP and URL to the system to the trucker." style="whiteSpace=wrap;html=1;shadow=1;rounded=1;" parent="WIyWlLk6GJQsqaUBKTNV-1" vertex="1">
          <mxGeometry x="130" y="318" width="180" height="60" as="geometry" />
        </mxCell>
        <mxCell id="rKMKvAkk2KBtUYU5qK6V-49" style="edgeStyle=orthogonalEdgeStyle;rounded=0;orthogonalLoop=1;jettySize=auto;html=1;entryX=0.5;entryY=0;entryDx=0;entryDy=0;shadow=1;endArrow=block;endFill=0;" parent="WIyWlLk6GJQsqaUBKTNV-1" source="rKMKvAkk2KBtUYU5qK6V-46" target="rKMKvAkk2KBtUYU5qK6V-48" edge="1">
          <mxGeometry relative="1" as="geometry" />
        </mxCell>
        <mxCell id="rKMKvAkk2KBtUYU5qK6V-46" value="Trucker will visit the URL and then take clear pictures and upload them to the cloud server." style="whiteSpace=wrap;html=1;shadow=1;rounded=1;" parent="WIyWlLk6GJQsqaUBKTNV-1" vertex="1">
          <mxGeometry x="130" y="402" width="180" height="60" as="geometry" />
        </mxCell>
        <mxCell id="rKMKvAkk2KBtUYU5qK6V-51" style="edgeStyle=orthogonalEdgeStyle;rounded=0;orthogonalLoop=1;jettySize=auto;html=1;entryX=0.5;entryY=0;entryDx=0;entryDy=0;shadow=1;endArrow=block;endFill=0;" parent="WIyWlLk6GJQsqaUBKTNV-1" source="rKMKvAkk2KBtUYU5qK6V-48" target="rKMKvAkk2KBtUYU5qK6V-50" edge="1">
          <mxGeometry relative="1" as="geometry" />
        </mxCell>
        <mxCell id="rKMKvAkk2KBtUYU5qK6V-48" value="System will send notification email to Bright Light Ventures." style="whiteSpace=wrap;html=1;shadow=1;rounded=1;" parent="WIyWlLk6GJQsqaUBKTNV-1" vertex="1">
          <mxGeometry x="130" y="483" width="180" height="60" as="geometry" />
        </mxCell>
        <mxCell id="-2Nd3-FrMw0_-XKqtEq4-1" style="edgeStyle=orthogonalEdgeStyle;rounded=0;orthogonalLoop=1;jettySize=auto;html=1;entryX=0.5;entryY=0;entryDx=0;entryDy=0;shadow=1;fontSize=12;startArrow=none;startFill=0;" edge="1" parent="WIyWlLk6GJQsqaUBKTNV-1" source="rKMKvAkk2KBtUYU5qK6V-50" target="-2Nd3-FrMw0_-XKqtEq4-0">
          <mxGeometry relative="1" as="geometry" />
        </mxCell>
        <mxCell id="rKMKvAkk2KBtUYU5qK6V-50" value="Bright Light Ventures will check the pictures." style="whiteSpace=wrap;html=1;shadow=1;rounded=1;" parent="WIyWlLk6GJQsqaUBKTNV-1" vertex="1">
          <mxGeometry x="130" y="566" width="180" height="60" as="geometry" />
        </mxCell>
        <mxCell id="-2Nd3-FrMw0_-XKqtEq4-3" style="edgeStyle=orthogonalEdgeStyle;rounded=0;orthogonalLoop=1;jettySize=auto;html=1;entryX=0.5;entryY=0;entryDx=0;entryDy=0;shadow=1;fontSize=12;startArrow=none;startFill=0;" edge="1" parent="WIyWlLk6GJQsqaUBKTNV-1" source="-2Nd3-FrMw0_-XKqtEq4-0" target="-2Nd3-FrMw0_-XKqtEq4-2">
          <mxGeometry relative="1" as="geometry" />
        </mxCell>
        <mxCell id="-2Nd3-FrMw0_-XKqtEq4-4" value="No" style="edgeLabel;html=1;align=center;verticalAlign=middle;resizable=0;points=[];fontSize=12;" vertex="1" connectable="0" parent="-2Nd3-FrMw0_-XKqtEq4-3">
          <mxGeometry x="-0.8436" relative="1" as="geometry">
            <mxPoint x="20" y="17" as="offset" />
          </mxGeometry>
        </mxCell>
        <mxCell id="-2Nd3-FrMw0_-XKqtEq4-5" style="edgeStyle=orthogonalEdgeStyle;rounded=0;orthogonalLoop=1;jettySize=auto;html=1;entryX=1;entryY=0.5;entryDx=0;entryDy=0;shadow=1;fontSize=12;startArrow=none;startFill=0;" edge="1" parent="WIyWlLk6GJQsqaUBKTNV-1" source="-2Nd3-FrMw0_-XKqtEq4-0" target="rKMKvAkk2KBtUYU5qK6V-46">
          <mxGeometry relative="1" as="geometry">
            <Array as="points">
              <mxPoint x="330" y="700" />
              <mxPoint x="330" y="432" />
            </Array>
          </mxGeometry>
        </mxCell>
        <mxCell id="-2Nd3-FrMw0_-XKqtEq4-6" value="Yes" style="edgeLabel;html=1;align=center;verticalAlign=middle;resizable=0;points=[];fontSize=12;" vertex="1" connectable="0" parent="-2Nd3-FrMw0_-XKqtEq4-5">
          <mxGeometry x="-0.0962" y="2" relative="1" as="geometry">
            <mxPoint x="22" y="-2" as="offset" />
          </mxGeometry>
        </mxCell>
        <mxCell id="-2Nd3-FrMw0_-XKqtEq4-0" value="Picture has any problem?" style="rhombus;whiteSpace=wrap;html=1;shadow=1;glass=1;fillStyle=auto;fontSize=12;opacity=60;rounded=0;" vertex="1" parent="WIyWlLk6GJQsqaUBKTNV-1">
          <mxGeometry x="132.5" y="660" width="175" height="80" as="geometry" />
        </mxCell>
        <mxCell id="-2Nd3-FrMw0_-XKqtEq4-2" value="Bright Light Ventures will forward the pictures to appropriate shipping line company." style="whiteSpace=wrap;html=1;shadow=1;rounded=1;" vertex="1" parent="WIyWlLk6GJQsqaUBKTNV-1">
          <mxGeometry x="130" y="780" width="180" height="60" as="geometry" />
        </mxCell>
      </root>
    </mxGraphModel>
  </diagram>
</mxfile>
